<svg id="Group_562" data-name="Group 562" xmlns="http://www.w3.org/2000/svg" width="63.145" height="36.189" viewBox="0 0 63.145 36.189">
  <path id="Path_6016" data-name="Path 6016" d="M2.918,0H60.227a2.918,2.918,0,0,1,2.918,2.918V33.271a2.918,2.918,0,0,1-2.918,2.918H2.918A2.918,2.918,0,0,1,0,33.271V2.918A2.918,2.918,0,0,1,2.918,0Z" transform="translate(0)" fill="#fff" opacity="0.15"/>
  <g id="american-express-logo" transform="translate(0 6.622)">
    <g id="Group_505" data-name="Group 505" transform="translate(44.388 2.37)">
      <g id="Group_504" data-name="Group 504">
        <path id="Path_5989" data-name="Path 5989" d="M34.834,17.56l-1.161,2.82h2.335Z" transform="translate(-33.673 -17.56)" fill="#fff"/>
      </g>
    </g>
    <g id="Group_507" data-name="Group 507" transform="translate(4.263 2.37)">
      <g id="Group_506" data-name="Group 506">
        <path id="Path_5990" data-name="Path 5990" d="M4.382,17.56,3.234,20.38H5.54Z" transform="translate(-3.234 -17.56)" fill="#fff"/>
      </g>
    </g>
    <g id="Group_509" data-name="Group 509" transform="translate(29.175 2.642)">
      <g id="Group_508" data-name="Group 508">
        <path id="Path_5991" data-name="Path 5991" d="M25.016,17.894a1.752,1.752,0,0,0-.8-.128H22.132v1.57h2.055a1.591,1.591,0,0,0,.836-.145.727.727,0,0,0,.348-.672A.647.647,0,0,0,25.016,17.894Z" transform="translate(-22.132 -17.766)" fill="#fff"/>
      </g>
    </g>
    <g id="Group_511" data-name="Group 511" transform="translate(36.414 14.809)">
      <g id="Group_510" data-name="Group 510">
        <path id="Path_5992" data-name="Path 5992" d="M30.514,27.124A1.659,1.659,0,0,0,29.707,27H27.624v1.588h2.055a1.646,1.646,0,0,0,.838-.144.765.765,0,0,0,.349-.68A.68.68,0,0,0,30.514,27.124Z" transform="translate(-27.624 -26.996)" fill="#fff"/>
      </g>
    </g>
    <g id="Group_513" data-name="Group 513" transform="translate(28.867 14.806)">
      <g id="Group_512" data-name="Group 512">
        <path id="Path_5993" data-name="Path 5993" d="M24.1,26.994H21.9v1.8h2.183c.65,0,1.055-.322,1.055-.932S24.715,26.994,24.1,26.994Z" transform="translate(-21.899 -26.994)" fill="#fff"/>
      </g>
    </g>
    <g id="Group_515" data-name="Group 515" transform="translate(13.467 12.176)">
      <g id="Group_514" data-name="Group 514">
        <path id="Path_5994" data-name="Path 5994" d="M59.051,28.691a.439.439,0,0,0-.037-.034,1.169,1.169,0,0,0,.534-.981V26.17A1.168,1.168,0,0,0,58.378,25H54.99a3.755,3.755,0,0,0-2.432.78A1.154,1.154,0,0,0,51.47,25H48.082a3.879,3.879,0,0,0-2.225.61A1.15,1.15,0,0,0,44.851,25H39.209a1.16,1.16,0,0,0-1.032.643c-.08-.057-.14-.123-.224-.173A5.261,5.261,0,0,0,35.368,25H31.462a1.158,1.158,0,0,0-1.032.649A4.68,4.68,0,0,0,27.821,25h-5.4a1.166,1.166,0,0,0-.858.372l-1.28,1.38-1.229-1.364A1.145,1.145,0,0,0,18.183,25h-6.8a1.168,1.168,0,0,0-1.168,1.169v7.075a1.168,1.168,0,0,0,1.168,1.169h6.7a1.165,1.165,0,0,0,.857-.376l1.291-1.4,1.225,1.378a1.166,1.166,0,0,0,.874.392h3.286a1.168,1.168,0,0,0,1.169-1.167V32.036h.94a4.949,4.949,0,0,0,2.571-.592v1.8a1.168,1.168,0,0,0,1.169,1.167h1.7a1.168,1.168,0,0,0,1.169-1.167V31.825h.637c.156,0,.265.005.344.011.005.127.005.278,0,.378v1.03a1.169,1.169,0,0,0,1.169,1.167h1.7a1.113,1.113,0,0,0,.517-.132,1.158,1.158,0,0,0,.515.132h5.643a1.156,1.156,0,0,0,.508-.127,1.142,1.142,0,0,0,.508.127h3.293a4.324,4.324,0,0,0,2.542-.711,1.163,1.163,0,0,0,1.073.711h3.293c2.4,0,3.823-1.272,3.823-3.4A3.12,3.12,0,0,0,59.051,28.691ZM27.725,30.866H25.615V33.24H22.329L20.246,30.9,18.082,33.24h-6.7V26.164h6.8l2.083,2.32,2.151-2.32h5.4c1.341,0,2.85.376,2.85,2.335S29.2,30.87,27.725,30.866Zm9.35-.911a1.8,1.8,0,0,1,.824.595,2.048,2.048,0,0,1,.281,1.291v1.4h-1.7v-.886c0-.424.041-1.056-.276-1.385-.243-.252-.618-.311-1.238-.311H33.163v2.582h-1.7V26.168H35.37A4.19,4.19,0,0,1,37.4,26.5a1.658,1.658,0,0,1,.869,1.57A1.988,1.988,0,0,1,37.075,29.955Zm7.779-2.325h-3.96v1.288h3.862v1.445H40.893v1.405l3.96.008v1.467H39.211V26.168h5.642Zm4.312,5.605H45.872v-1.52h3.278a.977.977,0,0,0,.689-.175.629.629,0,0,0,.2-.463.6.6,0,0,0-.206-.467.89.89,0,0,0-.6-.157c-1.579-.051-3.561.049-3.561-2.188,0-1.03.643-2.107,2.418-2.107h3.388v1.505h-3.1a1.139,1.139,0,0,0-.678.129.593.593,0,0,0,.113,1.037,1.96,1.96,0,0,0,.659.08l.908.026a2.741,2.741,0,0,1,1.929.569,1.965,1.965,0,0,1,.508,1.5C51.812,32.533,50.864,33.243,49.165,33.235Zm6.909,0H52.781v-1.52h3.28a.971.971,0,0,0,.688-.175.629.629,0,0,0,.2-.463.6.6,0,0,0-.206-.467.886.886,0,0,0-.6-.157c-1.581-.051-3.56.049-3.56-2.188,0-1.03.643-2.107,2.418-2.107h3.388v1.505h-3.1a1.139,1.139,0,0,0-.679.129.594.594,0,0,0,.113,1.037,1.964,1.964,0,0,0,.659.08l.908.026a2.746,2.746,0,0,1,1.931.569,1.975,1.975,0,0,1,.508,1.5C58.724,32.533,57.773,33.243,56.074,33.235Z" transform="translate(-10.216 -24.999)" fill="#fff"/>
      </g>
    </g>
    <g id="Group_517" data-name="Group 517" transform="translate(0 0)">
      <g id="Group_516" data-name="Group 516">
        <path id="Path_5995" data-name="Path 5995" d="M56.994,15.762H55.263a1.168,1.168,0,0,0-1.169,1.168v.73l-.8-1.333a1.174,1.174,0,0,0-1-.564H49.715a1.168,1.168,0,0,0-1.168,1.168v.993l-.621-1.453a1.167,1.167,0,0,0-1.072-.708H44.321a1.157,1.157,0,0,0-.7.232,1.159,1.159,0,0,0-.7-.232H41.29a4.639,4.639,0,0,0-3.174.993,1.153,1.153,0,0,0-1.132-.993H35.257a1.164,1.164,0,0,0-1.04.658,2.4,2.4,0,0,0-.21-.163,4.971,4.971,0,0,0-2.634-.494H27.485a1.143,1.143,0,0,0-.587.181,1.127,1.127,0,0,0-.585-.181H20.666a1.137,1.137,0,0,0-.63.21,1.144,1.144,0,0,0-.63-.21H16.587a1.167,1.167,0,0,0-1.073.713l-1,2.368-1.106-2.4a1.173,1.173,0,0,0-1.061-.679H9.582a1.168,1.168,0,0,0-1.168,1.168v1.016L7.78,16.469a1.169,1.169,0,0,0-1.074-.707H4.2a1.17,1.17,0,0,0-1.074.708L.095,23.545a1.167,1.167,0,0,0,1.073,1.628H3.005a1.167,1.167,0,0,0,1.076-.72l.357-.859H6.4l.352.854a1.167,1.167,0,0,0,1.081.724h3.439A1.168,1.168,0,0,0,12.437,24v-.028l.221.5a1.169,1.169,0,0,0,1.068.695l1.486,0a1.166,1.166,0,0,0,1.068-.7l.224-.5v.029a1.167,1.167,0,0,0,1.168,1.167h1.733a1.154,1.154,0,0,0,.63-.21,1.147,1.147,0,0,0,.63.21h5.647a1.127,1.127,0,0,0,.585-.181,1.139,1.139,0,0,0,.587.181h1.693a1.168,1.168,0,0,0,1.168-1.168V22.6h.646c.146,0,.25,0,.328.009.008.12.005.262.005.357l0,.156.007.892A1.17,1.17,0,0,0,32.5,25.174H34.2a1.14,1.14,0,0,0,.523-.141,1.149,1.149,0,0,0,.529.141h1.727a1.153,1.153,0,0,0,1.124-.941,4.9,4.9,0,0,0,3.06.941h1.981a1.165,1.165,0,0,0,1.077-.732l.344-.848h1.948l.357.859a1.168,1.168,0,0,0,1.078.718h3.441A1.168,1.168,0,0,0,52.561,24V22.888l1.037,1.72a1.171,1.171,0,0,0,1,.564h2.394A1.168,1.168,0,0,0,58.162,24V16.93A1.169,1.169,0,0,0,56.994,15.762ZM19.4,24H17.671l-.007-5.54L15.212,24H13.727l-2.456-5.546V24H7.829l-.65-1.578H3.659L3,24H1.165l3.028-7.075H6.7l2.878,6.7v-6.7h2.76l2.213,4.8,2.031-4.8H19.4S19.4,24,19.4,24Zm6.907-5.6H22.354v1.275h3.864v1.45H22.354V22.54h3.957V24H20.664V16.929h5.647Zm6.772,2.319a1.977,1.977,0,0,1,.837.6,2.025,2.025,0,0,1,.281,1.3V24H32.5l-.008-.892a2.127,2.127,0,0,0-.266-1.378,1.657,1.657,0,0,0-1.233-.3H29.176V24H27.482V16.93h3.889a3.975,3.975,0,0,1,2.047.339,1.651,1.651,0,0,1,.856,1.567A1.992,1.992,0,0,1,33.083,20.721ZM36.984,24H35.257V16.929h1.727Zm20.01,0H54.6l-3.207-5.31V24H47.951l-.659-1.578H43.778L43.143,24h-1.98a3.543,3.543,0,0,1-2.447-.782,3.548,3.548,0,0,1-.907-2.7,3.8,3.8,0,0,1,.906-2.768,3.426,3.426,0,0,1,2.568-.824h1.633v1.516h-1.6a1.623,1.623,0,0,0-1.3.419,2.334,2.334,0,0,0-.485,1.6A2.44,2.44,0,0,0,40,22.126a1.635,1.635,0,0,0,1.178.365h.758l2.389-5.563h2.534l2.861,6.691V16.929h2.577l2.971,4.927V16.929h1.731ZM41.9,19.614l-.734,1.712a1.356,1.356,0,0,1-.332-.034,1.8,1.8,0,0,1-.134-.824,1.717,1.717,0,0,1,.134-.767c.049-.047.09-.088.486-.088Z" transform="translate(0 -15.762)" fill="#fff"/>
      </g>
    </g>
    <g id="Group_519" data-name="Group 519" transform="translate(24.586 14.106)">
      <g id="Group_518" data-name="Group 518">
        <path id="Path_5996" data-name="Path 5996" d="M18.651,29.251l2.6,2.884V26.463Z" transform="translate(-18.651 -26.463)" fill="#fff"/>
      </g>
    </g>
    <g id="Group_521" data-name="Group 521" transform="translate(16.323 14.809)">
      <g id="Group_520" data-name="Group 520">
        <path id="Path_5997" data-name="Path 5997" d="M16.62,27H12.383v1.285h3.711v1.445H12.383v1.408h4.155l1.931-2.079Z" transform="translate(-12.383 -26.996)" fill="#fff"/>
      </g>
    </g>
  </g>
</svg>
