<svg xmlns="http://www.w3.org/2000/svg" width="17.419" height="20.93" viewBox="0 0 17.419 20.93">
  <g id="Group_2098" data-name="Group 2098" transform="translate(0 0)">
    <path id="Path_68006" data-name="Path 68006" d="M21.567,956.245a4.358,4.358,0,0,1,2.586.789,3.655,3.655,0,0,1,1.169,2.573l-.027,2.179a.484.484,0,0,1-.968,0l.027-2.179a2.648,2.648,0,0,0-.776-1.8,3.432,3.432,0,0,0-2.011-.6H20.8a3.432,3.432,0,0,0-2.011.6,2.585,2.585,0,0,0-.721,1.8l-.027,2.179a.484.484,0,0,1-.968,0l.027-2.179a3.6,3.6,0,0,1,1.114-2.573,4.358,4.358,0,0,1,2.586-.789h.771Zm7.913,5.06a.482.482,0,0,1,.438.481v14.908a.482.482,0,0,1-.484.481H12.984a.482.482,0,0,1-.484-.481V961.786a.482.482,0,0,1,.484-.481h6.363a.481.481,0,1,1,0,.962H13.468v13.946H28.951V962.267h-6.47a.43.43,0,0,1-.443-.458.482.482,0,0,1,.484-.481l6.913-.022Zm-5.983.153c.267.012.409.085.4.35a.483.483,0,0,1-.507.458H19.032a.481.481,0,1,1,0-.962l4.246.022c.015,0,.2.13.22.131Z" transform="translate(-12.5 -956.245)"/>
  </g>
</svg>
