<svg xmlns="http://www.w3.org/2000/svg" width="35.485" height="45.074" viewBox="0 0 35.485 45.074">
  <path id="Path_6087" data-name="Path 6087" d="M49.183,23.779a5.2,5.2,0,0,0-2.211-.264c-2.839,0-7.647.534-9.47.736-.051-.38-.1-.775-.162-1.2-.08-.591-.16-1.191-.241-1.8C36.3,15.243,35.471,9.027,33.406,6.7c-.554-1.31-1.2-1.947-1.985-1.947s-1.431.637-1.985,1.947c-2.066,2.33-2.894,8.547-3.694,14.561-.08.6-.16,1.2-.24,1.794-.055.4-.105.777-.154,1.14-2.1-.231-6.337-.677-8.931-.677a5.194,5.194,0,0,0-2.21.264l-.254.127L17.47,47.1A2.765,2.765,0,0,0,18.128,49a2.838,2.838,0,0,0,2.193.824H43.065A2.84,2.84,0,0,0,45.259,49a2.762,2.762,0,0,0,.658-1.905l3.52-23.19ZM36.324,21.359c.08.6.16,1.205.241,1.8.056.413.11.807.161,1.188.035.265.07.526.1.775.345,2.649.5,4.384.1,4.889a.393.393,0,0,1-.3.152.987.987,0,0,1-.115.008c-.144,0-.482,0-.61-2.44,0-.006,0-.015,0-.021-.01-.184-.02-.449-.033-.785,0-.1-.008-.214-.013-.331-.015-.387-.032-.834-.052-1.328l-.033-.785a114.8,114.8,0,0,0-1.214-13.351A85.993,85.993,0,0,1,36.324,21.359Zm-4.9-15.828a.754.754,0,0,1,.5.228,2.351,2.351,0,0,0-.994,0A.753.753,0,0,1,31.421,5.532ZM30.1,7.124a1.67,1.67,0,0,1,2.632,0C34.252,10.874,34.787,19.775,35,24.6a18.317,18.317,0,0,1-3.305.267,18.662,18.662,0,0,1-3.465-.292l-.382-.059C28.06,19.671,28.6,10.852,30.1,7.124ZM26.02,25.054c.033-.25.067-.51.1-.775.048-.361.1-.733.152-1.122.08-.591.16-1.192.241-1.8a85.87,85.87,0,0,1,1.762-10.236A114.271,114.271,0,0,0,27.067,24.4q-.018.409-.033.784c-.022.525-.04,1-.055,1.407-.019.509-.034.9-.047,1.137-.129,2.44-.466,2.44-.61,2.44a.987.987,0,0,1-.115-.008.392.392,0,0,1-.3-.152C25.513,29.5,25.669,27.739,26.02,25.054Zm22.3.98c-.085-.009-.169-.019-.27-.027l-1.229-.034c-.4,0-.825.015-1.278.033l.033.781c.442-.019.862-.031,1.236-.033l1.2.033c.071.006.131.013.194.019L45.138,47.018l-.007.046,0,.046a2.011,2.011,0,0,1-.452,1.362,2.1,2.1,0,0,1-1.617.571H20.322a2.105,2.105,0,0,1-1.613-.565,2.006,2.006,0,0,1-.456-1.367l0-.046L15.182,26.807c.059-.006.118-.013.181-.018l.6-.028c.546-.013,1.192,0,1.891.03l.034-.781c-.719-.031-1.356-.044-1.953-.03l-.62.03c-.089.007-.17.016-.25.024L14.817,24.4a8.7,8.7,0,0,1,1.6-.1c2.547,0,6.734.44,8.829.671-.427,3.295-.512,4.8.046,5.521a1.175,1.175,0,0,0,.825.449,1.784,1.784,0,0,0,.206.013c1.029,0,1.282-1.118,1.391-3.181,0-.008,0-.019,0-.027l.393.061c.686.108,1.279.2,2.04.254l.054-.78c-.727-.051-1.276-.137-1.972-.246l-.481-.075c0-.106.008-.217.013-.336.014-.37.031-.817.052-1.322l.294.046a19.34,19.34,0,0,0,3.587.3,18.753,18.753,0,0,0,3.339-.263c.019.471.035.887.048,1.237.006.152.011.29.016.42-.652.1-1.182.184-1.865.233l.056.78c.682-.05,1.233-.132,1.843-.228.11,2.024.369,3.123,1.387,3.123a1.768,1.768,0,0,0,.206-.013,1.175,1.175,0,0,0,.825-.449c.555-.715.474-2.208.054-5.462,1.822-.2,6.58-.73,9.369-.73a8.7,8.7,0,0,1,1.6.1Z" transform="translate(-13.951 -4.75)" fill="#fff"/>
</svg>
