<svg xmlns="http://www.w3.org/2000/svg" width="69" height="67.606" viewBox="0 0 69 67.606">
  <g id="Group_826" data-name="Group 826" transform="translate(-3999.535 1854)">
    <path id="Subtraction_1" data-name="Subtraction 1" d="M22.126,49.991c-4.642,0-7.01-.258-7.038-.768L13.4,20.623,8.927,24a2.075,2.075,0,0,1-1.31.456,2.241,2.241,0,0,1-1.8-.911L.367,15.5a2.245,2.245,0,0,1,.259-2.789l9.663-9.4A11.67,11.67,0,0,1,18.461,0h4.474a.563.563,0,0,1,.519.389c.726,2.706,3.836,4.669,7.393,4.669a8.832,8.832,0,0,0,4.734-1.338A5.884,5.884,0,0,0,38.176.389.49.49,0,0,1,38.694,0H43.1a11.67,11.67,0,0,1,8.171,3.308l9.663,9.4A2.167,2.167,0,0,1,61.2,15.5c-.014.02-.652.4-1.9,1.132l-.178-.368a2.587,2.587,0,0,0-2.229-1.586c-.05,0-.1-.005-.152-.005a2.835,2.835,0,0,0-1.437.414l-.881.524a2.83,2.83,0,0,1-1.437.414c-.051,0-.1,0-.152-.005a2.788,2.788,0,0,1-1.517-.626l-.8-.706a2.792,2.792,0,0,0-1.516-.626c-.063,0-.126-.007-.189-.007a2.651,2.651,0,0,0-2.235,1.2l-.581.87a2.651,2.651,0,0,1-2.233,1.2c-.064,0-.128,0-.192-.007a1.272,1.272,0,0,1-.225-.048,1.29,1.29,0,0,0-.224-.048l-1.021-.266a1.09,1.09,0,0,0-.448-.1c-.059,0-.118-.006-.177-.006A2.694,2.694,0,0,0,38.829,19.2l-.137,1.03a2.708,2.708,0,0,1-2.112,2.323l-1.054.186a2.745,2.745,0,0,0-1.818,1.341,2.6,2.6,0,0,0-.181,2.16l.32,1a2.527,2.527,0,0,1,.016,1.626,2.891,2.891,0,0,1-.94,1.364l-.826.657a2.6,2.6,0,0,0-1.057,1.877,2.736,2.736,0,0,0,.777,2.134l.662.761a2.617,2.617,0,0,1,.5,3.091l-.456.943a2.768,2.768,0,0,0,.218,2.764c-2.111,4.925-3.477,7.423-4.059,7.423-.162,0-.543.01-1.07.024C26.355,49.937,24.254,49.991,22.126,49.991Z" transform="translate(3999.535 -1854)" fill="#b0060f"/>
    <g id="noun_approved_426786" transform="translate(4034.557 -1836.558) rotate(4)">
      <path id="Path_23" data-name="Path 23" d="M13.713,34.6a5.563,5.563,0,0,0,1.605-.254L9.806,47.522a.533.533,0,0,1-.963.051L6.221,43.2a.368.368,0,0,0-.428-.153L.87,44.52a.492.492,0,0,1-.642-.661L5.472,31.393a5.823,5.823,0,0,0,2.3.509,6.19,6.19,0,0,0,.963-.1h.107l.054.1A5.523,5.523,0,0,0,13.713,34.6Zm12.522-2.7a6.19,6.19,0,0,1-.963-.1h-.107l-.054.1A5.544,5.544,0,0,1,20.3,34.6a5.869,5.869,0,0,1-1.605-.254l5.565,13.229a.533.533,0,0,0,.963.051l2.622-4.376a.368.368,0,0,1,.428-.153l4.923,1.476a.492.492,0,0,0,.642-.661L28.59,31.342A4.857,4.857,0,0,1,26.235,31.9ZM.763,17.248a2.012,2.012,0,0,1,0-3.155l.642-.56a2.062,2.062,0,0,0,.589-2.391l-.321-.763A2.081,2.081,0,0,1,3.117,7.53l.856-.2A2.149,2.149,0,0,0,5.579,5.393l.054-.814A2.174,2.174,0,0,1,7.826,2.595a.954.954,0,0,1,.375.051l.856.153c.107,0,.268.051.375.051a2.2,2.2,0,0,0,1.926-1.068l.428-.712A2.223,2.223,0,0,1,13.713,0,2.387,2.387,0,0,1,15,.407l.7.509a2.387,2.387,0,0,0,1.284.407A2.387,2.387,0,0,0,18.262.916l.7-.458A2.387,2.387,0,0,1,20.242.051,2.147,2.147,0,0,1,22.168,1.17l.428.712A2.147,2.147,0,0,0,24.523,3a.954.954,0,0,0,.375-.051l.856-.153c.107,0,.268-.051.375-.051a2.138,2.138,0,0,1,2.194,1.984l.054.814a2.149,2.149,0,0,0,1.605,1.933l.856.2a2.115,2.115,0,0,1,1.445,2.849l-.214.661a1.987,1.987,0,0,0,.589,2.391l.642.56a2.012,2.012,0,0,1,0,3.155l-.642.56a2.062,2.062,0,0,0-.589,2.391l.321.763a2.081,2.081,0,0,1-1.445,2.849l-.856.2A2.149,2.149,0,0,0,28.483,26l-.054.814A2.174,2.174,0,0,1,26.235,28.8a.954.954,0,0,1-.375-.051L25,28.595c-.107,0-.268-.051-.375-.051A2.2,2.2,0,0,0,22.7,29.612l-.428.712a2.223,2.223,0,0,1-1.926,1.068,2.387,2.387,0,0,1-1.284-.407l-.7-.509a2.23,2.23,0,0,0-2.569,0l-.7.458a2.387,2.387,0,0,1-1.284.407,2.147,2.147,0,0,1-1.926-1.119l-.428-.712a2.147,2.147,0,0,0-1.926-1.119.954.954,0,0,0-.375.051l-.856.153c-.107,0-.268.051-.375.051a2.138,2.138,0,0,1-2.194-1.984l-.214-.712A2.149,2.149,0,0,0,3.92,24.015l-.856-.2a2.115,2.115,0,0,1-1.445-2.849L1.94,20.2a1.987,1.987,0,0,0-.589-2.391Zm8.027,4.02a1.4,1.4,0,0,0,1.445,1.374h2.141a2.065,2.065,0,0,0,.8-.2A1.365,1.365,0,0,0,13.5,21.37V18.012s0,4.172,2.462,4.427c.856.051,1.98.1,3.05.1a10.843,10.843,0,0,0,2.89-.1C24.737,21.878,24.041,20,24.041,20a1.734,1.734,0,0,0,.642-2.442,1.632,1.632,0,0,0,0-2.493,1.406,1.406,0,0,0-.214-1.883c-1.177-1.018-4.388-.356-4.388-.356h0c-.214.051-.482.1-.7.153,0,0-1.124.509,0-2.7s-.749-3.714-1.5-3.714c-.8,0-.535,1.577-.535,1.577s-1.659,4.376-3.264,5.5a3.091,3.091,0,0,0-.749,1.221,1.5,1.5,0,0,0-.91-.305H10.288a1.4,1.4,0,0,0-1.445,1.374v5.342Z" transform="translate(0 0)" fill="#b0060f"/>
    </g>
  </g>
</svg>
