<svg id="Group_1710" data-name="Group 1710" xmlns="http://www.w3.org/2000/svg" width="23.287" height="22.061" viewBox="0 0 23.287 22.061">
  <path id="Icon_material-brush" data-name="Icon material-brush" d="M9.127,17.979a3.671,3.671,0,0,0-3.676,3.676A2.487,2.487,0,0,1,3,24.107a6.34,6.34,0,0,0,4.9,2.451,4.9,4.9,0,0,0,4.9-4.9A3.671,3.671,0,0,0,9.127,17.979ZM25.928,6.5,24.286,4.855a1.22,1.22,0,0,0-1.728,0l-10.98,10.98,3.37,3.37,10.98-10.98A1.22,1.22,0,0,0,25.928,6.5Z" transform="translate(-3 -4.496)" fill="#ddb429"/>
</svg>
