<svg xmlns="http://www.w3.org/2000/svg" width="51.559" height="65.739" viewBox="0 0 51.559 65.739">
  <g id="noun_customer_service_848409" data-name="noun_customer service_848409" transform="translate(-14.706 -5)">
    <g id="Group_26" data-name="Group 26" transform="translate(14.706 5)">
      <path id="Path_24" data-name="Path 24" d="M44.445,43.277A3.753,3.753,0,0,1,48.2,39.529h2.739a3.734,3.734,0,0,1,2.391.863,18.057,18.057,0,0,0,2.66-.558,16.758,16.758,0,0,0,2.722-8.872,13.8,13.8,0,1,0-27.6,0c0,7.61,6.191,15.689,13.8,15.689a10.852,10.852,0,0,0,1.483-.107A3.741,3.741,0,0,1,44.445,43.277Z" transform="translate(-19.126 -8.278)" fill="#b0060f"/>
      <path id="Path_25" data-name="Path 25" d="M50.848,57.73a15.855,15.855,0,0,1-9.635,3.254H39.759a15.854,15.854,0,0,1-9.636-3.254A18.372,18.372,0,0,0,14.706,75.861c0,5.02,11.541,9.092,25.78,9.092s25.779-4.072,25.779-9.092A18.371,18.371,0,0,0,50.848,57.73Z" transform="translate(-14.706 -19.214)" fill="#b0060f"/>
      <path id="Path_26" data-name="Path 26" d="M22.252,38.308h.172a3.441,3.441,0,0,0,3.442-3.445V27.984a3.433,3.433,0,0,0-1.914-3.077,17.665,17.665,0,0,1,35.28,0,3.436,3.436,0,0,0-1.912,3.077v6.878a3.439,3.439,0,0,0,.244,1.279,16.84,16.84,0,0,1-8.213,2.742,2.07,2.07,0,0,0-1.73-.944H44.882a2.063,2.063,0,1,0,0,4.125h2.739a2.053,2.053,0,0,0,1.821-1.114,18.52,18.52,0,0,0,9.467-3.19,3.4,3.4,0,0,0,1.852.547h.171a3.44,3.44,0,0,0,3.441-3.445V27.984a3.43,3.43,0,0,0-1.961-3.1,20.84,20.84,0,0,0-41.636,0,3.427,3.427,0,0,0-1.964,3.1v6.878A3.442,3.442,0,0,0,22.252,38.308Z" transform="translate(-15.813 -5)" fill="#b0060f"/>
    </g>
  </g>
</svg>
