<svg xmlns="http://www.w3.org/2000/svg" width="67.017" height="45" viewBox="0 0 67.017 45">
  <path id="Path_6091" data-name="Path 6091" d="M70.86,49.005c-.522-.224-15.795-7.6-17.806-8.568-.522-.82-.969-1.639-1.49-2.459C46.05,28.591,40.835,19.8,30.33,19.8a23.624,23.624,0,0,0-8.046,1.565,2.705,2.705,0,0,0-2.906-.3c-1.267.447-2.012,1.267-2.012,2.086v.224C11.63,25.909,7.756,29.783,6.042,34.85,3.36,42.6,6.266,51.464,9.916,57.126a.76.76,0,0,0,.6.373h0a62.12,62.12,0,0,0,13.262-2.608,15.959,15.959,0,0,1,1.416.969,56.1,56.1,0,0,0,14.454,7.6A25.308,25.308,0,0,0,47.391,64.8a15.03,15.03,0,0,0,7.972-2.161,68.577,68.577,0,0,0,10.281-8.121,11.452,11.452,0,0,1,4.1-2.682h.522a1.5,1.5,0,0,0,1.639-.894C72.052,50.644,72.276,49.75,70.86,49.005ZM30.33,21.29c9.611,0,14.677,8.493,19.967,17.434.447.671.82,1.416,1.267,2.086a40.655,40.655,0,0,1-4.172,2.682c-1.043-1.714-2.161-3.576-3.2-5.364-4.172-7.152-8.642-14.975-15.422-16.763A11,11,0,0,1,30.33,21.29ZM10.885,55.934C7.607,50.57,5,42.449,7.458,35.371c1.49-4.4,4.694-7.748,9.462-10.207-.075.149-.149.373-.224.522-1.937,5.364.373,15.72,6.184,27.864A51.989,51.989,0,0,1,10.885,55.934ZM24.3,53.177c-5.588-11.772-7.972-22.053-6.184-26.97a4.019,4.019,0,0,1,1.937-2.384h0c11.175-5.066,17.061,5.141,22.8,15.05,1.043,1.788,2.086,3.651,3.2,5.364a111.913,111.913,0,0,1-18.4,7.9C26.53,52.507,25.413,52.879,24.3,53.177Zm45.224-2.757a12.784,12.784,0,0,0-4.917,3.2,68.642,68.642,0,0,1-9.983,7.823c-3.725,2.31-8.642,2.533-14.454.6-5.737-1.863-9.983-4.694-14.081-7.45a.744.744,0,0,1-.373-.3c.82-.224,1.639-.522,2.459-.745A115.288,115.288,0,0,0,47.54,45.131h0a42.769,42.769,0,0,0,5.066-3.278c2.608,1.267,17.136,8.27,17.583,8.493h0A2.3,2.3,0,0,0,69.519,50.421Z" transform="translate(-4.996 -19.8)" fill="#fff"/>
</svg>
