<svg xmlns="http://www.w3.org/2000/svg" width="18.997" height="18.997" viewBox="0 0 18.997 18.997">
  <g id="noun_Close_1310878" transform="translate(-33.869 -34.869)">
    <g id="Group_2107" data-name="Group 2107" transform="translate(33.869 34.869)">
      <g id="Group_2106" data-name="Group 2106">
        <path id="Path_68012" data-name="Path 68012" d="M35.757,34.525a.862.862,0,0,0,1.22,0l7.4-7.4a.862.862,0,0,1,1.219,0l.014.014a.861.861,0,0,1,0,1.219l-7.4,7.4a.862.862,0,0,0,0,1.22l7.4,7.4a.862.862,0,0,1,0,1.219l-.014.014a.861.861,0,0,1-1.219,0l-7.4-7.4a.862.862,0,0,0-1.22,0l-7.4,7.4a.862.862,0,0,1-1.219,0l-.014-.014a.861.861,0,0,1,0-1.219l7.4-7.4c.337-.337,0-1.22,0-1.22l-7.4-7.4a.862.862,0,0,1,0-1.219l.014-.014a.861.861,0,0,1,1.219,0Z" transform="translate(-26.869 -26.869)" fill="#191717" fill-rule="evenodd"/>
      </g>
    </g>
  </g>
</svg>
