<svg xmlns="http://www.w3.org/2000/svg" width="45.089" height="45" viewBox="0 0 45.089 45">
  <path id="Path_6088" data-name="Path 6088" d="M28.307,32.5v3.364c-1.33-.313-4.46-.861-6.572.626A5.364,5.364,0,0,0,19.7,41.186c0,7.981,5.79,15.336,11.189,19.639,1.643,7.277,4.069,12.6,7.2,15.727a.71.71,0,0,0,.548.235H54.44a.71.71,0,0,0,.548-.235c4.46-4.46,7.433-13.223,8.92-26.055a140.9,140.9,0,0,0,.861-17.918.841.841,0,0,0-.782-.782h-34.9C28.7,31.719,28.385,32.11,28.307,32.5Zm-6.964,8.685a3.978,3.978,0,0,1,1.33-3.364c1.8-1.33,4.929-.548,5.634-.313.078,3.286.313,7.981.861,12.91.313,2.817.7,5.477,1.174,7.9C24.786,53.314,21.343,46.9,21.343,41.186Zm8.529-7.9h33.41c0,4.929-.156,32.393-9.154,41.86h-15.1C30.106,65.755,29.872,38.291,29.872,33.284Z" transform="translate(-19.7 -31.787)" fill="#fff"/>
</svg>
