<svg xmlns="http://www.w3.org/2000/svg" width="63.145" height="36.189" viewBox="0 0 63.145 36.189">
  <g id="Group_563" data-name="Group 563" transform="translate(0 0)">
    <rect id="Rectangle_397" data-name="Rectangle 397" width="63.145" height="36.189" rx="4" transform="translate(0 0)" fill="#fff" opacity="0.15"/>
    <g id="discover-logo-of-pay-system" transform="translate(1.399 6.622)">
      <g id="Group_523" data-name="Group 523" transform="translate(40.322 0.238)">
        <g id="Group_522" data-name="Group 522">
          <path id="Path_5998" data-name="Path 5998" d="M36.662,14.414V13H32.038v8.363h4.624V19.943H33.668V17.685h2.886V16.27H33.668V14.414Z" transform="translate(-32.038 -12.996)" fill="#fff"/>
        </g>
      </g>
      <g id="Group_525" data-name="Group 525" transform="translate(46.031 0.24)">
        <g id="Group_524" data-name="Group 524">
          <path id="Path_5999" data-name="Path 5999" d="M40.048,17.838a2.225,2.225,0,0,0,1.905-2.371c0-1.566-1.08-2.469-2.96-2.469H36.574v8.363H38.2V18h.211l2.257,3.36h2.009Zm-1.369-.992H38.2V14.316h.5c1.017,0,1.568.425,1.568,1.238C40.274,16.4,39.72,16.847,38.678,16.847Z" transform="translate(-36.574 -12.998)" fill="#fff"/>
        </g>
      </g>
      <g id="Group_527" data-name="Group 527" transform="translate(51.492 0.073)">
        <g id="Group_526" data-name="Group 526">
          <path id="Path_6000" data-name="Path 6000" d="M41.556,12.865a.641.641,0,1,0,.632.641A.638.638,0,0,0,41.556,12.865Zm-.006,1.167a.526.526,0,1,1,.508-.525A.519.519,0,0,1,41.55,14.032Z" transform="translate(-40.913 -12.865)" fill="#fff"/>
        </g>
      </g>
      <g id="Group_529" data-name="Group 529" transform="translate(51.86 0.347)">
        <g id="Group_528" data-name="Group 528">
          <path id="Path_6001" data-name="Path 6001" d="M41.562,13.516a.2.2,0,0,0,.16-.205c0-.149-.1-.228-.279-.228h-.237v.735h.175v-.286l.206.286H41.8Zm-.152-.107h-.028v-.191h.03c.087,0,.131.031.131.094S41.5,13.409,41.41,13.409Z" transform="translate(-41.206 -13.083)" fill="#fff"/>
        </g>
      </g>
      <g id="Group_531" data-name="Group 531" transform="translate(7.639 0.238)">
        <g id="Group_530" data-name="Group 530">
          <rect id="Rectangle_398" data-name="Rectangle 398" width="1.63" height="8.363" fill="#fff"/>
        </g>
      </g>
      <g id="Group_533" data-name="Group 533" transform="translate(9.878 0.099)">
        <g id="Group_532" data-name="Group 532">
          <path id="Path_6002" data-name="Path 6002" d="M11.223,16.233c-.98-.361-1.269-.6-1.269-1.052,0-.527.513-.928,1.217-.928a1.689,1.689,0,0,1,1.315.678l.853-1.119a3.668,3.668,0,0,0-2.458-.926,2.453,2.453,0,0,0-2.605,2.4c0,1.152.524,1.742,2.055,2.293a6.5,6.5,0,0,1,1.128.476,1,1,0,0,1,.49.866A1.193,1.193,0,0,1,10.683,20.1,1.929,1.929,0,0,1,8.9,18.98L7.849,20a3.25,3.25,0,0,0,2.893,1.593,2.7,2.7,0,0,0,2.886-2.746C13.627,17.514,13.076,16.911,11.223,16.233Z" transform="translate(-7.849 -12.886)" fill="#fff"/>
        </g>
      </g>
      <g id="Group_535" data-name="Group 535" transform="translate(15.959 12.095)">
        <g id="Group_534" data-name="Group 534">
          <path id="Path_6003" data-name="Path 6003" d="M12.68,38.431H57.068V22.417S41.393,33.479,12.68,38.431Z" transform="translate(-12.68 -22.417)" fill="#fff"/>
        </g>
      </g>
      <g id="Group_537" data-name="Group 537" transform="translate(0 0.24)">
        <g id="Group_536" data-name="Group 536">
          <path id="Path_6004" data-name="Path 6004" d="M2.391,13H0v8.363H2.382a4.359,4.359,0,0,0,2.982-.968,4.188,4.188,0,0,0,1.517-3.208A4.153,4.153,0,0,0,2.391,13ZM4.3,19.278a3.088,3.088,0,0,1-2.229.665H1.63v-5.53h.438a3.022,3.022,0,0,1,2.229.676,2.812,2.812,0,0,1,.9,2.082A2.86,2.86,0,0,1,4.3,19.278Z" transform="translate(0 -12.998)" fill="#fff"/>
        </g>
      </g>
      <g id="Group_539" data-name="Group 539" transform="translate(31.547 0.24)">
        <g id="Group_538" data-name="Group 538">
          <path id="Path_6005" data-name="Path 6005" d="M31.337,13l-2.26,5.617L26.848,13H25.066l3.549,8.575h.875L33.1,13Z" transform="translate(-25.066 -12.998)" fill="#fff"/>
        </g>
      </g>
      <g id="Group_541" data-name="Group 541" transform="translate(23.161 0)">
        <g id="Group_540" data-name="Group 540">
          <path id="Path_6006" data-name="Path 6006" d="M22.85,12.807A4.448,4.448,0,1,0,27.1,18.578c.026-.077.042-.155.064-.232s.034-.13.047-.194a4.31,4.31,0,0,0,.091-.9A4.447,4.447,0,0,0,22.85,12.807Z" transform="translate(-18.403 -12.807)" fill="#fff"/>
        </g>
      </g>
      <g id="Group_543" data-name="Group 543" transform="translate(16.171 0.05)">
        <g id="Group_542" data-name="Group 542">
          <path id="Path_6007" data-name="Path 6007" d="M17.262,14.337a2.729,2.729,0,0,1,2.045.941V13.36a4.156,4.156,0,0,0-2.006-.513,4.4,4.4,0,0,0-4.452,4.376,4.326,4.326,0,0,0,4.411,4.361,4.478,4.478,0,0,0,2.045-.487V19.176a2.608,2.608,0,0,1-1.968.917,2.732,2.732,0,0,1-2.807-2.885A2.78,2.78,0,0,1,17.262,14.337Z" transform="translate(-12.849 -12.847)" fill="#fff"/>
        </g>
      </g>
    </g>
  </g>
</svg>
