<svg xmlns="http://www.w3.org/2000/svg" width="29.822" height="45.074" viewBox="0 0 29.822 45.074">
  <g id="TSP_Dress_QuickBuy" transform="translate(-26.507 -14.492)">
    <g id="Group_727" data-name="Group 727" transform="translate(26.507 14.492)">
      <path id="Path_6084" data-name="Path 6084" d="M33.247,14.864,30.9,23.152a2.263,2.263,0,0,0-.07.958L32.05,35.645,26.519,58.963a.51.51,0,0,0,.476.6H55.829a.531.531,0,0,0,.493-.6L50.79,35.61l1.2-11.535a2.369,2.369,0,0,0-.07-1.012l-2.307-8.2a.53.53,0,0,0-.493-.355H47.427a.58.58,0,0,0-.423.213c-.916,1.384-2.536,2.4-5.583,2.4-3.065,0-4.685-1.012-5.6-2.4a.494.494,0,0,0-.423-.23H33.706a.518.518,0,0,0-.459.372Zm.828.621h1.092c1.127,1.561,3.1,2.644,6.253,2.644,3.118,0,5.108-1.083,6.235-2.626h1.092l2.308,8.128-1.04,8.447H32.808L31.786,23.7v-.018Zm-1.04,17.6H49.787V35.2H33.036ZM32.931,36.2H49.893l5.3,22.377h-2.15L49.082,37.455a.528.528,0,0,0-.6-.408.514.514,0,0,0-.37.585l3.927,20.941H49.717L46.775,37.49a.5.5,0,1,0-.986.125l2.923,20.958H45.788L44.309,37.509a.495.495,0,1,0-.986.07l1.462,20.994H41.913V37.543a.521.521,0,0,0-.6-.5.512.512,0,0,0-.4.5V58.573H38.038l1.479-20.994a.519.519,0,0,0-.564-.532.491.491,0,0,0-.423.461L37.07,58.573H34.128l2.923-20.958a.525.525,0,0,0-.581-.568.506.506,0,0,0-.4.443L33.124,58.572H30.8l3.927-20.941a.493.493,0,1,0-.969-.177L29.795,58.572H27.628Z" transform="translate(-26.507 -14.492)" fill="#fff"/>
    </g>
  </g>
</svg>
