<svg id="google" xmlns="http://www.w3.org/2000/svg" width="25.58" height="25.58" viewBox="0 0 25.58 25.58">
  <path id="Path_6021" data-name="Path 6021" d="M5.669,146.818l-.89,3.324-3.254.069a12.812,12.812,0,0,1-.094-11.943h0l2.9.531,1.269,2.88a7.633,7.633,0,0,0,.072,5.139Z" transform="translate(0 -131.36)" fill="#fbbb00"/>
  <path id="Path_6022" data-name="Path 6022" d="M273.913,208.176a12.785,12.785,0,0,1-4.559,12.363h0l-3.649-.186-.517-3.224a7.623,7.623,0,0,0,3.28-3.892h-6.839v-5.06h12.285Z" transform="translate(-248.557 -197.775)" fill="#518ef8"/>
  <path id="Path_6023" data-name="Path 6023" d="M49.781,316.714h0A12.794,12.794,0,0,1,30.509,312.8l4.145-3.393A7.607,7.607,0,0,0,45.615,313.3Z" transform="translate(-28.985 -293.951)" fill="#28b446"/>
  <path id="Path_6024" data-name="Path 6024" d="M48.148,2.944,44,6.337a7.606,7.606,0,0,0-11.213,3.982L28.625,6.908h0A12.793,12.793,0,0,1,48.148,2.944Z" transform="translate(-27.194)" fill="#f14336"/>
</svg>
