<svg xmlns="http://www.w3.org/2000/svg" width="74.419" height="65.494" viewBox="0 0 74.419 65.494">
  <g id="Group_474" data-name="Group 474" transform="translate(-3664.492 1797.079)">
    <g id="noun_Power_1790575" transform="translate(3664.492 -1773.516)">
      <g id="Group_25" data-name="Group 25" transform="translate(0 0)">
        <path id="Path_18" data-name="Path 18" d="M28.623,55.625a50.394,50.394,0,0,0-5.1-6.514,58.565,58.565,0,0,1-4.814-5.876,2.644,2.644,0,0,0-3.682-.637c-1.416.85-2.478,2.761-.92,5.735.779,1.558,2.69,3.611,4.673,5.806.142.142.212.283.354.425a1.113,1.113,0,0,1-.212,1.7,1.293,1.293,0,0,1-1.487-.212l-.354-.354a50.135,50.135,0,0,1-3.965-4.673,11.159,11.159,0,0,1-1.062-1.7,6.841,6.841,0,0,1-.566-5.876,49.546,49.546,0,0,1-2.407-5.876A3.367,3.367,0,0,0,2.5,38.916c.212,4.39,1.77,18.9,6.018,23.86a50.438,50.438,0,0,0,9.062,7.859,2.214,2.214,0,0,1,.92,1.77v2.974a1.6,1.6,0,0,0,1.628,1.628H30.463a1.6,1.6,0,0,0,1.628-1.628c-.071-1.77-.142-4.744-.283-7.292A33.158,33.158,0,0,0,28.623,55.625Z" transform="translate(-2.492 -35.076)" fill="#b0060f"/>
        <path id="Path_19" data-name="Path 19" d="M78.739,37.647a54.947,54.947,0,0,1-2.407,5.876,7.1,7.1,0,0,1-.566,5.876A16.19,16.19,0,0,1,74.7,51.1c-1.062,1.416-2.407,2.974-3.965,4.673-.071.142-.212.212-.283.354a1.1,1.1,0,0,1-1.487.212,1.113,1.113,0,0,1-.212-1.7c.142-.142.212-.283.354-.425,1.982-2.195,3.894-4.248,4.673-5.806,1.487-2.9.5-4.885-.92-5.735a2.624,2.624,0,0,0-3.682.637,50.2,50.2,0,0,1-4.814,5.876,50.4,50.4,0,0,0-5.1,6.514c-1.274,2.124-2.832,7.08-3.186,12.319-.142,2.549-.212,5.522-.283,7.292a1.6,1.6,0,0,0,1.628,1.628H67.765a1.6,1.6,0,0,0,1.628-1.628V72.34a2.214,2.214,0,0,1,.92-1.77,50.441,50.441,0,0,0,9.062-7.859c4.248-4.956,5.735-19.47,6.018-23.789C85.536,34.6,80.013,33.612,78.739,37.647Z" transform="translate(-10.978 -35.081)" fill="#b0060f"/>
      </g>
    </g>
    <g id="noun_cotton_18663" transform="translate(3683.608 -1797.079)">
      <path id="Path_20" data-name="Path 20" d="M37.955,13.584a5.764,5.764,0,0,0-7.32-8.554,7.639,7.639,0,0,0-14.358,0A5.74,5.74,0,0,0,13.6,4.347a5.77,5.77,0,0,0-4.4,9.535,8.281,8.281,0,0,0,4.85,14.857,11.434,11.434,0,0,1-3.125-6.624l-.1-1.084,1.051-.286a13.758,13.758,0,0,1,3.291-.392,9.954,9.954,0,0,1,4.881,1.139,11.256,11.256,0,0,1,2.842-4.409l.869-.791.869.791a11.248,11.248,0,0,1,2.841,4.409,9.941,9.941,0,0,1,4.877-1.139,13.714,13.714,0,0,1,3.288.393l1.135.309-.2,1.159a12.729,12.729,0,0,1-3.454,6.525c.065,0,.129.009.2.009a8.295,8.295,0,0,0,4.647-15.165Z" transform="translate(-5.954)" fill="#b0060f"/>
      <path id="Path_21" data-name="Path 21" d="M36.965,49.361a6.9,6.9,0,0,0-1.242,1.029c0-.061.019-.117.019-.178,0-3.112-2.774-5.637-2.774-5.637s-2.774,2.525-2.774,5.637c0,.061.017.117.019.178a6.876,6.876,0,0,0-1.243-1.029c-3.173-2.021-7.547-.833-7.547-.833s.48,4.466,3.654,6.489A9.251,9.251,0,0,0,31.37,56.04v9.954c0,.534.68.967,1.214.967s1.214-.433,1.214-.967v-9.97c1.214.233,4.414.464,6.726-1.007,3.175-2.023,3.968-6.489,3.968-6.489S40.139,47.34,36.965,49.361Z" transform="translate(-15.164 -26.537)" fill="#b0060f"/>
    </g>
  </g>
</svg>
