<svg id="Group_1114" data-name="Group 1114" xmlns="http://www.w3.org/2000/svg" width="22.338" height="20.01" viewBox="0 0 22.338 20.01">
  <path id="Path_15494" data-name="Path 15494" d="M20.708,31.8a5.581,5.581,0,0,0-8.983.655,8.707,8.707,0,0,0-.556.914,8.7,8.7,0,0,0-.556-.914,5.656,5.656,0,0,0-4.679-2.621A5.627,5.627,0,0,0,1.63,31.8,6.923,6.923,0,0,0,0,36.362a8.469,8.469,0,0,0,2.284,5.516A51.136,51.136,0,0,0,8,47.293c.864.747,1.758,1.519,2.71,2.364l.029.025a.648.648,0,0,0,.862,0l.029-.025c.952-.844,1.846-1.617,2.71-2.364a51.128,51.128,0,0,0,5.715-5.414,8.469,8.469,0,0,0,2.284-5.516A6.923,6.923,0,0,0,20.708,31.8ZM13.49,46.283c-.745.644-1.512,1.306-2.321,2.019-.809-.713-1.576-1.375-2.321-2.019-4.54-3.923-7.539-6.514-7.539-9.921a5.588,5.588,0,0,1,1.3-3.683,4.343,4.343,0,0,1,3.322-1.516,4.4,4.4,0,0,1,3.611,2.061,7.913,7.913,0,0,1,1,2.02.652.652,0,0,0,1.244,0,7.914,7.914,0,0,1,1-2.02A4.4,4.4,0,0,1,16.4,31.163a4.343,4.343,0,0,1,3.322,1.516,5.587,5.587,0,0,1,1.3,3.683C21.029,39.768,18.03,42.36,13.49,46.283Z" transform="translate(0 -29.836)" fill="#191717"/>
</svg>
