<svg xmlns="http://www.w3.org/2000/svg" width="48.29" height="45.074" viewBox="0 0 48.29 45.074">
  <g id="TSP_Hoodie_QuickBuy" transform="translate(-8.591 -10.736)">
    <g id="Group_748" data-name="Group 748" transform="translate(8.591 14.553)">
      <g id="Group_731" data-name="Group 731" transform="translate(11.574 11.329)">
        <g id="Group_730" data-name="Group 730">
          <g id="Group_729" data-name="Group 729">
            <g id="Group_728" data-name="Group 728">
              <path id="Path_6106" data-name="Path 6106" d="M32.515,55.2H22.1c-.729,0-2.4-.313-2.4-3.021l2.6-26.463c0-.313.313-.521.521-.417.313,0,.521.313.417.521l-2.6,26.359c0,1.875,1.042,1.875,1.354,1.875H32.411a.492.492,0,0,1,.521.521C32.931,54.89,32.827,55.2,32.515,55.2Z" transform="translate(-19.7 -25.274)" fill="#fff"/>
            </g>
          </g>
        </g>
      </g>
      <g id="Group_735" data-name="Group 735">
        <g id="Group_734" data-name="Group 734">
          <g id="Group_733" data-name="Group 733">
            <g id="Group_732" data-name="Group 732">
              <path id="Path_6107" data-name="Path 6107" d="M49.337,51.073c-.625,0-1.875-.313-2.292-2.292l-5.418-22.5c-.1-.313.1-.521.417-.625s.521.1.625.417l5.418,22.5c.313,1.459,1.042,1.459,1.25,1.459h.417l4.9-.729c.521-.1.729-.313.833-.625a2.326,2.326,0,0,0-.1-1.146l-6.043-27.3c-1.146-2.813-7.814-4.584-9.272-4.9-.833.521-4.793,2.709-7.4,2.709-1.98,0-6.98-2.084-7.918-2.5-1.25.208-7.71,1.667-8.856,4.688l-6.147,27.3a2.326,2.326,0,0,0-.1,1.146q.156.469.938.625l4.793.729c.208,0,.313.1.417.1.208,0,.938,0,1.25-1.459l5.522-22.608a.531.531,0,0,1,1.042.208l-5.418,22.5c-.417,1.875-1.459,2.188-2.292,2.188a1.321,1.321,0,0,1-.625-.1l-4.793-.729A1.883,1.883,0,0,1,8.7,48.989a2.341,2.341,0,0,1,.1-1.667L14.956,20.13c0-.1,0-.1.1-.208,1.459-3.646,8.856-5.209,9.9-5.313h.313c1.563.729,5.939,2.5,7.605,2.5,2.5,0,6.98-2.6,6.98-2.6a.383.383,0,0,1,.313-.1c1.042.1,8.856,1.875,10.314,5.522,0,.1,0,.1.1.208l6.147,27.192a4.641,4.641,0,0,1,.1,1.667,1.82,1.82,0,0,1-1.667,1.25l-4.9.729A8.079,8.079,0,0,0,49.337,51.073Z" transform="translate(-8.591 -14.4)" fill="#fff"/>
            </g>
          </g>
        </g>
      </g>
      <g id="Group_739" data-name="Group 739" transform="translate(23.868 11.252)">
        <g id="Group_738" data-name="Group 738">
          <g id="Group_737" data-name="Group 737">
            <g id="Group_736" data-name="Group 736">
              <path id="Path_6108" data-name="Path 6108" d="M41.71,55.205H32.021a.521.521,0,1,1,0-1.042H41.71a1.68,1.68,0,0,0,.938-.313,2.264,2.264,0,0,0,.521-1.667L40.877,25.721a.521.521,0,0,1,1.042,0l2.292,26.463a3.164,3.164,0,0,1-.833,2.4A2.2,2.2,0,0,1,41.71,55.205Z" transform="translate(-31.5 -25.2)" fill="#fff"/>
            </g>
          </g>
        </g>
      </g>
      <g id="Group_743" data-name="Group 743" transform="translate(25.014 2.605)">
        <g id="Group_742" data-name="Group 742">
          <g id="Group_741" data-name="Group 741">
            <g id="Group_740" data-name="Group 740">
              <path id="Path_6109" data-name="Path 6109" d="M35.934,23.464c-1.875,0-3.334-2.709-3.334-6.043a.521.521,0,1,1,1.042,0c0,2.917,1.25,5,2.292,5a.492.492,0,0,1,.521.521A.558.558,0,0,1,35.934,23.464Z" transform="translate(-32.6 -16.9)" fill="#fff"/>
            </g>
          </g>
        </g>
      </g>
      <g id="Group_747" data-name="Group 747" transform="translate(19.805 2.605)">
        <g id="Group_746" data-name="Group 746">
          <g id="Group_745" data-name="Group 745">
            <g id="Group_744" data-name="Group 744">
              <path id="Path_6110" data-name="Path 6110" d="M28.121,23.464a.521.521,0,1,1,0-1.042c.313-.208.938-1.98.938-5a.521.521,0,1,1,1.042,0C30.1,19.609,29.684,23.464,28.121,23.464Z" transform="translate(-27.6 -16.9)" fill="#fff"/>
            </g>
          </g>
        </g>
      </g>
    </g>
    <g id="Group_752" data-name="Group 752" transform="translate(21.832 10.736)">
      <g id="Group_751" data-name="Group 751">
        <g id="Group_750" data-name="Group 750">
          <g id="Group_749" data-name="Group 749">
            <path id="Path_6111" data-name="Path 6111" d="M21.821,16.22A.477.477,0,0,1,21.3,15.8s0-4.376,5.626-4.793a54.981,54.981,0,0,1,11.044,0c2.5.313,5.105,1.98,5.105,4.48a.521.521,0,1,1-1.042,0c0-1.875-2.188-3.23-4.167-3.438a51.871,51.871,0,0,0-10.731,0c-4.584.417-4.688,3.646-4.688,3.751a.857.857,0,0,1-.625.417Z" transform="translate(-21.3 -10.736)" fill="#fff"/>
          </g>
        </g>
      </g>
    </g>
    <g id="Group_756" data-name="Group 756" transform="translate(24.948 11.314)">
      <g id="Group_755" data-name="Group 755">
        <g id="Group_754" data-name="Group 754">
          <g id="Group_753" data-name="Group 753">
            <path id="Path_6112" data-name="Path 6112" d="M32.01,17.76a.383.383,0,0,1-.313-.1l-7.189-5.418a.521.521,0,0,1,.625-.833l7.189,5.418a.515.515,0,0,1,.1.729C32.323,17.76,32.218,17.76,32.01,17.76Z" transform="translate(-24.291 -11.291)" fill="#fff"/>
          </g>
        </g>
      </g>
    </g>
    <g id="Group_760" data-name="Group 760" transform="translate(31.974 11.418)">
      <g id="Group_759" data-name="Group 759">
        <g id="Group_758" data-name="Group 758">
          <g id="Group_757" data-name="Group 757">
            <path id="Path_6113" data-name="Path 6113" d="M31.519,17.756a.541.541,0,0,1-.417-.208c-.1-.313-.1-.625.1-.729L38.6,11.5a.521.521,0,0,1,.625.833l-7.4,5.313C31.728,17.651,31.624,17.756,31.519,17.756Z" transform="translate(-31.034 -11.391)" fill="#fff"/>
          </g>
        </g>
      </g>
    </g>
    <g id="Group_764" data-name="Group 764" transform="translate(27.118 12.47)">
      <g id="Group_763" data-name="Group 763">
        <g id="Group_762" data-name="Group 762">
          <g id="Group_761" data-name="Group 761">
            <path id="Path_6114" data-name="Path 6114" d="M26.922,14.067a.532.532,0,0,1-.521-.417c-.1-.313.1-.521.417-.625a19.891,19.891,0,0,1,9.9,0,.571.571,0,0,1,.417.625.7.7,0,0,1-.729.417,20.361,20.361,0,0,0-9.377,0Z" transform="translate(-26.374 -12.4)" fill="#fff"/>
          </g>
        </g>
      </g>
    </g>
    <g id="Group_768" data-name="Group 768" transform="translate(31.938 16.741)">
      <g id="Group_767" data-name="Group 767" transform="translate(0 0)">
        <g id="Group_766" data-name="Group 766">
          <g id="Group_765" data-name="Group 765">
            <path id="Path_6115" data-name="Path 6115" d="M31.521,55.048A.492.492,0,0,1,31,54.527V17.021a.521.521,0,0,1,1.042,0V54.527A.492.492,0,0,1,31.521,55.048Z" transform="translate(-31 -16.5)" fill="#fff"/>
          </g>
        </g>
      </g>
    </g>
  </g>
</svg>
