<svg id="Group_364" data-name="Group 364" xmlns="http://www.w3.org/2000/svg" width="272.926" height="49.373" viewBox="0 0 272.926 49.373">
  <g id="noun_Tshirt_2103665" transform="translate(0 1.496)">
    <path id="Path_22" data-name="Path 22" d="M59.651,24.966l-5.084,7.445a2.06,2.06,0,0,1-2.905.484l-4.176-3.147L45.911,56.44a2.045,2.045,0,0,1-2,1.937H18.674a2.057,2.057,0,0,1-2.058-1.937L15.042,29.748,10.866,32.9a2.049,2.049,0,0,1-2.905-.424L2.876,24.966a2.092,2.092,0,0,1,.242-2.6l9.019-8.776A10.913,10.913,0,0,1,19.763,10.5H23.94a.527.527,0,0,1,.484.363c.666,2.482,3.511,4.358,6.9,4.358,3.329,0,6.174-1.876,6.84-4.358a.46.46,0,0,1,.484-.363h4.116a10.913,10.913,0,0,1,7.626,3.087l9.019,8.776A2.023,2.023,0,0,1,59.651,24.966Z" transform="translate(-2.533 -10.5)"/>
  </g>
  <g id="noun_Idea_1754154" transform="translate(112.212)">
    <g id="Group_46" data-name="Group 46">
      <path id="Path_35" data-name="Path 35" d="M49.685,968.509a1.167,1.167,0,0,0-1.651,0l-3.3,3.3a1.167,1.167,0,0,0,1.651,1.651l3.3-3.3A1.167,1.167,0,0,0,49.685,968.509ZM33.18,961.675a1.167,1.167,0,0,0-1.986.825v4.668a1.16,1.16,0,1,0,2.321,0V962.5a1.158,1.158,0,0,0-.335-.825Zm23.339,23.339a1.158,1.158,0,0,0-.825-.335H51.026a1.16,1.16,0,1,0,0,2.321h4.668a1.167,1.167,0,0,0,.825-1.986Zm-14.262-9.078c-5.032-5.032-13.807-6-19.329-.477-6.757,6.757-3.706,13.245-7.543,18.169l9.181,9.181c4.924-3.837,11.412-.787,18.169-7.543,5.522-5.522,4.555-14.3-.477-19.329Zm-5.042-.039.013.013q.033.031.064.064a1.167,1.167,0,0,1-1.315,1.883,8.77,8.77,0,0,0-8.614.8,1.168,1.168,0,0,1-1.328-1.921,11.052,11.052,0,0,1,10.883-1.006,1.169,1.169,0,0,1,.3.168Zm-20.541-7.389a1.167,1.167,0,0,0-1.651,1.651l3.3,3.3a1.167,1.167,0,1,0,1.651-1.651Zm29.709,29.71a1.167,1.167,0,0,0-1.651,1.651l3.3,3.3a1.167,1.167,0,0,0,1.651-1.651Zm-32.6-2.888-1.651,1.651,9.078,9.078,1.651-1.651Zm-3.3,3.3-.825.825a2.337,2.337,0,0,0,0,3.3l5.777,5.777a2.337,2.337,0,0,0,3.3,0l.825-.825Zm-.413,6.19a2.334,2.334,0,0,0,3.3,3.3Z" transform="translate(-8.978 -961.34)"/>
    </g>
  </g>
  <g id="noun_Plus_1896692" transform="translate(79.296 19.45)">
    <path id="Path_36" data-name="Path 36" d="M13.688,6.811H9.878V3a.5.5,0,0,0-.5-.5H7.411a.5.5,0,0,0-.5.5v3.81H3.1a.5.5,0,0,0-.5.5V9.278a.5.5,0,0,0,.5.5h3.81v3.81a.5.5,0,0,0,.5.5H9.365a.5.5,0,0,0,.5-.5V9.778h3.81a.5.5,0,0,0,.5-.5V7.324A.5.5,0,0,0,13.688,6.811Z" transform="translate(-2.6 -2.5)"/>
  </g>
  <path id="Subtraction_2" data-name="Subtraction 2" d="M41.38,47.876H16.14a2.057,2.057,0,0,1-2.059-1.936L12.508,19.247,8.331,22.394a1.936,1.936,0,0,1-1.223.427,2.09,2.09,0,0,1-1.681-.849L.342,14.466a2.094,2.094,0,0,1,.242-2.6L9.6,3.086A10.892,10.892,0,0,1,17.229,0h4.176a.526.526,0,0,1,.485.364c.677,2.525,3.578,4.357,6.9,4.357,3.286,0,6.162-1.833,6.839-4.357A.459.459,0,0,1,36.113,0H40.23a10.89,10.89,0,0,1,7.625,3.086l9.019,8.777a2.022,2.022,0,0,1,.241,2.6l-5.083,7.445a2.062,2.062,0,0,1-2.906.483l-4.176-3.147L43.377,45.94A2.05,2.05,0,0,1,41.38,47.876ZM22.851,28.106h0l-.225.225a.625.625,0,0,0-.186.445.643.643,0,0,0,.186.453L24.2,30.8a.644.644,0,0,0,.452.186A.622.622,0,0,0,25.1,30.8l.225-.225-2.471-2.471Zm-.113,1.685a.639.639,0,0,0,0,.9.634.634,0,0,0,.9,0Zm1.011-2.583h0l-.448.448,2.471,2.472.45-.45-2.472-2.471ZM32.4,27.9a.317.317,0,0,0-.224.542l.9.9a.32.32,0,0,0,.225.093.318.318,0,0,0,.225-.543l-.9-.9A.313.313,0,0,0,32.4,27.9ZM28.725,20.78A3.486,3.486,0,0,0,26.239,21.8a4.936,4.936,0,0,0-1.391,3.046,3.94,3.94,0,0,1-.662,1.9l2.5,2.5a3.94,3.94,0,0,1,1.9-.663,4.933,4.933,0,0,0,3.044-1.391,3.487,3.487,0,0,0,1.013-2.682,3.916,3.916,0,0,0-3.918-3.729Zm5.164,3.528a.316.316,0,1,0,0,.632H35.16a.315.315,0,0,0,.315-.315.319.319,0,0,0-.09-.225.315.315,0,0,0-.225-.092Zm-.59-4.5a.314.314,0,0,0-.225.094l-.9.9a.316.316,0,0,0,0,.45.32.32,0,0,0,.225.093.314.314,0,0,0,.224-.093l.9-.9a.317.317,0,0,0,0-.448A.314.314,0,0,0,33.3,19.812Zm-8.987,0a.317.317,0,0,0-.224.542l.9.9a.32.32,0,0,0,.225.093.318.318,0,0,0,.225-.543l-.9-.9A.313.313,0,0,0,24.312,19.812Zm4.494-1.859a.313.313,0,0,0-.316.316v1.27a.316.316,0,1,0,.632,0V18.27a.31.31,0,0,0-.315-.316Zm-1.54,4.771a.318.318,0,0,1-.181-.58,3.01,3.01,0,0,1,2.964-.273.341.341,0,0,1,.081.044l.015.016.005.006a.318.318,0,0,1-.358.513,2.385,2.385,0,0,0-2.344.217A.317.317,0,0,1,27.265,22.725Z" transform="translate(215.447 1.496)"/>
  <g id="noun_Equal_1171145" transform="translate(182.531 22.442)">
    <g id="Group_47" data-name="Group 47">
      <path id="Path_37" data-name="Path 37" d="M6.238,982.361a.263.263,0,0,0-.238.263v1.447a.263.263,0,0,0,.263.263H17.314a.263.263,0,0,0,.263-.263v-1.447a.263.263,0,0,0-.263-.263H6.238Z" transform="translate(-6 -982.361)" fill-rule="evenodd"/>
      <path id="Path_38" data-name="Path 38" d="M6.238,1007.361a.263.263,0,0,0-.238.263v1.447a.263.263,0,0,0,.263.263H17.314a.263.263,0,0,0,.263-.263v-1.447a.263.263,0,0,0-.263-.263H6.238Z" transform="translate(-6 -1004.072)" fill-rule="evenodd"/>
    </g>
  </g>
</svg>
