<svg id="Group_615" data-name="Group 615" xmlns="http://www.w3.org/2000/svg" width="32.958" height="31.46" viewBox="0 0 32.958 31.46">
  <path id="Path_6019" data-name="Path 6019" d="M10.124.1C6.886,1.855,3.689,3.673.411,5.318A.737.737,0,0,0,0,5.982a5.231,5.231,0,0,0,2.136,4.312,6.962,6.962,0,0,0,3.556,1.274c-1.513,7.244-1.406,11.61.7,19.345a.769.769,0,0,0,.716.544h8.24a.749.749,0,0,0,.663-.425,8.813,8.813,0,0,0,.464-1.38,7.656,7.656,0,0,0,.451,1.38.765.765,0,0,0,.663.425h8.24a.785.785,0,0,0,.73-.544c2.11-7.735,2.216-12.1.7-19.345a7,7,0,0,0,3.556-1.274,5.266,5.266,0,0,0,2.136-4.312.762.762,0,0,0-.411-.663C29.256,3.7,26.059,1.855,22.835.1A.751.751,0,0,0,22.463,0,24.367,24.367,0,0,0,19.77.382a24.44,24.44,0,0,1-3.291.372A24.594,24.594,0,0,1,13.175.4C12.26.25,11.358.064,10.482,0A.807.807,0,0,0,10.124.1ZM11.291,1.59c.571.093,1.168.2,1.645.279a25.061,25.061,0,0,0,3.543.385,26.989,26.989,0,0,0,3.529-.385c.557-.093,1.141-.2,1.645-.279a4.693,4.693,0,0,1-1.685,3.118,5.635,5.635,0,0,1-3.49,1.274,5.671,5.671,0,0,1-3.5-1.274A4.748,4.748,0,0,1,11.291,1.59Zm-1.46.372a6.382,6.382,0,0,0,2.189,3.888,6.993,6.993,0,0,0,4.458,1.632,7.019,7.019,0,0,0,4.458-1.632,6.382,6.382,0,0,0,2.189-3.888L29.6,5.491a12.373,12.373,0,0,1-3.781,3.98.772.772,0,0,0-.332.809c1.818,7.974,1.818,11.915-.252,19.677h-7.1a10.712,10.712,0,0,1-.372-1.181c-.186-.69-.372-1.446-.571-2.057a.783.783,0,0,0-.716-.531.769.769,0,0,0-.716.531c-.2.61-.385,1.367-.571,2.057-.146.517-.265.862-.372,1.181H7.709C5.652,22.2,5.652,18.255,7.47,10.28a.78.78,0,0,0-.345-.809,12.661,12.661,0,0,1-3.781-3.98ZM1.977,6.22a15.265,15.265,0,0,0,3.37,3.795,5.361,5.361,0,0,1-2.322-.929A3.594,3.594,0,0,1,1.539,6.433Zm29,0,.425.212a3.623,3.623,0,0,1-1.473,2.654,5.427,5.427,0,0,1-2.322.929A15.265,15.265,0,0,0,30.981,6.22Zm-14.5,3.5a1.128,1.128,0,0,0,0,2.256,1.128,1.128,0,0,0,0-2.256Zm0,4.5a1.121,1.121,0,1,0,0,2.242,1.121,1.121,0,0,0,0-2.242Zm0,4.5a1.121,1.121,0,1,0,1.115,1.115A1.113,1.113,0,0,0,16.479,18.719Z" transform="translate(0 0.004)" fill="#fff"/>
</svg>
