<svg xmlns="http://www.w3.org/2000/svg" width="63.145" height="36.189" viewBox="0 0 63.145 36.189">
  <g id="Group_560" data-name="Group 560" transform="translate(0 0)">
    <path id="Path_6017" data-name="Path 6017" d="M2.918,0H60.227a2.918,2.918,0,0,1,2.918,2.918V33.271a2.918,2.918,0,0,1-2.918,2.918H2.918A2.918,2.918,0,0,1,0,33.271V2.918A2.918,2.918,0,0,1,2.918,0Z" transform="translate(0 0)" fill="#fff" opacity="0.12"/>
    <g id="Group_492" data-name="Group 492" transform="translate(8.115 4.011)">
      <g id="mastercard" transform="translate(0 0)">
        <g id="Group_490" data-name="Group 490" transform="translate(0 0)">
          <path id="Path_5970" data-name="Path 5970" d="M13.953,100.8a14.1,14.1,0,0,0,.149,28.205,14.267,14.267,0,0,0,9.476-3.656h0A13.407,13.407,0,0,0,25,123.857h-2.91a17.214,17.214,0,0,1-1.045-1.418h5a9.558,9.558,0,0,0,.821-1.492H20.221a8.894,8.894,0,0,1-.6-1.492h7.76a14.817,14.817,0,0,0,.746-4.477,19.26,19.26,0,0,0-.3-2.985H19.177a10.908,10.908,0,0,1,.373-1.492h7.76a8.894,8.894,0,0,0-.6-1.492H20.147a14.8,14.8,0,0,1,.821-1.492h5a7.1,7.1,0,0,0-1.119-1.492H22.087a12.718,12.718,0,0,1,1.418-1.418,14.082,14.082,0,0,0-9.551-3.805C13.947,100.808,14.028,100.8,13.953,100.8Z" transform="translate(0 -100.8)" fill="#fff"/>
          <path id="Path_5983" data-name="Path 5983" d="M14.177,100.8a14.1,14.1,0,0,1-.149,28.205,14.267,14.267,0,0,1-9.476-3.656h0a13.408,13.408,0,0,1-1.418-1.492h2.91a17.211,17.211,0,0,0,1.045-1.418h-5a9.559,9.559,0,0,1-.821-1.492H7.909a8.893,8.893,0,0,0,.6-1.492H.746A14.817,14.817,0,0,1,0,114.977a19.26,19.26,0,0,1,.3-2.985H8.954a10.909,10.909,0,0,0-.373-1.492H.821a8.894,8.894,0,0,1,.6-1.492H7.984a14.8,14.8,0,0,0-.821-1.492h-5a7.1,7.1,0,0,1,1.119-1.492H6.044a12.718,12.718,0,0,0-1.418-1.418,14.082,14.082,0,0,1,9.551-3.805C14.184,100.808,14.1,100.8,14.177,100.8Z" transform="translate(18.841 -100.8)" fill="#fff"/>
        </g>
      </g>
      <g id="Group_491" data-name="Group 491" transform="translate(1.306 10.913)">
        <path id="Path_5973" data-name="Path 5973" d="M183.764,226.566l.224-1.269a3.229,3.229,0,0,1-.373.075c-.522,0-.6-.3-.522-.448l.448-2.612h.821l.224-1.418h-.746l.149-.9H182.5s-.9,4.925-.9,5.522a1.12,1.12,0,0,0,1.194,1.269A2.29,2.29,0,0,0,183.764,226.566Z" transform="translate(-166.005 -219.328)" fill="#3b3a3a"/>
        <path id="Path_5974" data-name="Path 5974" d="M210.4,232.066a2.373,2.373,0,0,0,2.612,2.612,3.874,3.874,0,0,0,1.567-.224l.3-1.418a4.473,4.473,0,0,1-1.567.373c-1.642,0-1.343-1.194-1.343-1.194h3.059a9.676,9.676,0,0,0,.224-1.343,2.022,2.022,0,0,0-2.164-2.164C211.519,228.559,210.4,230.2,210.4,232.066Zm2.612-2.164c.821,0,.672.97.672,1.045h-1.642C212.042,230.872,212.191,229.9,213.012,229.9Z" transform="translate(-192.119 -227.216)" fill="#3b3a3a"/>
        <path id="Path_5975" data-name="Path 5975" d="M300.1,220.038l.3-1.642a3.667,3.667,0,0,1-1.269.373c-1.045,0-1.492-.821-1.492-1.716,0-1.791.9-2.761,1.94-2.761a2.492,2.492,0,0,1,1.343.448l.224-1.567a5.247,5.247,0,0,0-1.716-.373c-1.716,0-3.432,1.492-3.432,4.328,0,1.865.9,3.134,2.686,3.134A6.7,6.7,0,0,0,300.1,220.038Z" transform="translate(-269.735 -212.8)" fill="#3b3a3a"/>
        <path id="Path_5976" data-name="Path 5976" d="M89.235,227.2a5.285,5.285,0,0,0-1.791.3l-.224,1.268a4.411,4.411,0,0,1,1.642-.3c.522,0,.97.075.97.522,0,.3-.075.373-.075.373h-.672c-1.268,0-2.686.522-2.686,2.239,0,1.343.9,1.642,1.418,1.642a2.242,2.242,0,0,0,1.567-.672l-.075.6h1.343l.6-4.1A1.768,1.768,0,0,0,89.235,227.2Zm.3,3.358c0,.224-.149,1.418-1.045,1.418a.582.582,0,0,1-.6-.6c0-.373.224-.9,1.343-.9A1.177,1.177,0,0,0,89.534,230.558Z" transform="translate(-79.684 -225.857)" fill="#3b3a3a"/>
        <path id="Path_5977" data-name="Path 5977" d="M136.916,232.519a1.912,1.912,0,0,0,2.239-1.94c0-1.865-1.791-1.492-1.791-2.239,0-.373.3-.522.821-.522.224,0,1.045.075,1.045.075l.224-1.343a5.668,5.668,0,0,0-1.418-.149c-1.119,0-2.239.448-2.239,1.94,0,1.716,1.865,1.567,1.865,2.239,0,.448-.522.522-.9.522a4.88,4.88,0,0,1-1.343-.224l-.224,1.343C135.275,232.369,135.648,232.519,136.916,232.519Z" transform="translate(-123.933 -225.131)" fill="#3b3a3a"/>
        <path id="Path_5978" data-name="Path 5978" d="M431.453,214.4l-.3,2.015a2.069,2.069,0,0,0-1.418-.746c-1.343,0-2.537,1.642-2.537,3.582,0,1.194.6,2.462,1.865,2.462a1.992,1.992,0,0,0,1.418-.6l-.075.522H431.9l1.119-7.163Zm-.672,3.955c0,.821-.373,1.865-1.194,1.865-.522,0-.821-.448-.821-1.194,0-1.194.522-1.94,1.194-1.94C430.483,217.086,430.782,217.459,430.782,218.355Z" transform="translate(-388.697 -214.251)" fill="#3b3a3a"/>
        <path id="Path_5979" data-name="Path 5979" d="M15.818,221.563l.9-5.372.149,5.372h1.045l1.94-5.372-.821,5.372h1.567l1.194-7.163H19.325l-1.492,4.4-.075-4.4H15.594L14.4,221.563Z" transform="translate(-14.4 -214.251)" fill="#3b3a3a"/>
        <path id="Path_5980" data-name="Path 5980" d="M261.642,234.62c.448-2.462.522-4.477,1.567-4.1a5.856,5.856,0,0,1,.522-1.716h-.3c-.672,0-1.194.9-1.194.9l.149-.821H260.97l-.97,5.82h1.642Z" transform="translate(-237.092 -227.308)" fill="#3b3a3a"/>
        <path id="Path_5981" data-name="Path 5981" d="M349.235,227.2a5.285,5.285,0,0,0-1.791.3l-.224,1.268a4.411,4.411,0,0,1,1.642-.3c.522,0,.97.075.97.522,0,.3-.075.373-.075.373h-.672c-1.268,0-2.686.522-2.686,2.239,0,1.343.9,1.642,1.418,1.642a2.242,2.242,0,0,0,1.567-.672l-.075.6h1.343l.6-4.1A1.742,1.742,0,0,0,349.235,227.2Zm.373,3.358c0,.224-.149,1.418-1.045,1.418a.582.582,0,0,1-.6-.6c0-.373.224-.9,1.343-.9C349.534,230.558,349.534,230.558,349.608,230.558Z" transform="translate(-315.434 -225.857)" fill="#3b3a3a"/>
        <path id="Path_5982" data-name="Path 5982" d="M396.042,234.62c.448-2.462.522-4.477,1.567-4.1a5.856,5.856,0,0,1,.522-1.716h-.3c-.672,0-1.194.9-1.194.9l.149-.821H395.37l-.97,5.82h1.642Z" transform="translate(-358.957 -227.308)" fill="#3b3a3a"/>
      </g>
    </g>
  </g>
</svg>
