<svg id="Group_564" data-name="Group 564" xmlns="http://www.w3.org/2000/svg" width="63.145" height="36.189" viewBox="0 0 63.145 36.189">
  <rect id="Rectangle_399" data-name="Rectangle 399" width="63.145" height="36.189" rx="4" transform="translate(0 0)" fill="#fff" opacity="0.149"/>
  <g id="paypal-logo" transform="translate(8.115 11.752)">
    <g id="Group_545" data-name="Group 545" transform="translate(0 0.79)">
      <g id="Group_544" data-name="Group 544">
        <path id="Path_6008" data-name="Path 6008" d="M8.419,20.51a1.9,1.9,0,0,0-.7-.754,3.274,3.274,0,0,0-1.112-.408,9.085,9.085,0,0,0-1.51-.119l-2.672,0a.669.669,0,0,0-.615.488l-1.8,7.829a.378.378,0,0,0,.387.486H1.68a.655.655,0,0,0,.614-.486l.439-1.9a.655.655,0,0,1,.613-.485h.366A6.059,6.059,0,0,0,7.359,24.2a3,3,0,0,0,1.306-2.537A2.38,2.38,0,0,0,8.419,20.51ZM5.66,23.068a2.69,2.69,0,0,1-1.618.425H3.729A.381.381,0,0,1,3.341,23l.385-1.662a.647.647,0,0,1,.609-.485l.419,0a2.047,2.047,0,0,1,1.113.249.846.846,0,0,1,.369.762A1.385,1.385,0,0,1,5.66,23.068Z" transform="translate(0 -19.229)" fill="#fff"/>
      </g>
    </g>
    <g id="Group_547" data-name="Group 547" transform="translate(44.117 0)">
      <g id="Group_546" data-name="Group 546">
        <path id="Path_6009" data-name="Path 6009" d="M48.118,19.784l-.08.024-.107.015L47.8,19.8l-.067-.065-.031-.1,0-.154v-.569h.428v-.176H47.7v-.355h-.212v.355h-.144v.176h.144v.663l.1.328.291.1L48,20l.13-.025v-.187Z" transform="translate(-47.345 -18.381)" fill="#fff"/>
      </g>
    </g>
    <g id="Group_549" data-name="Group 549" transform="translate(45.152 0.32)">
      <g id="Group_548" data-name="Group 548">
        <path id="Path_6010" data-name="Path 6010" d="M50.178,18.85l-.306-.126-.225.046-.229.155-.133-.148-.216-.051-.208.046-.2.127v-.138h-.208V20h.207v-.929l.174-.108.173-.043.142.025.07.072.031.119.01.154V20h.208v-.8l0-.066,0-.061.177-.113.175-.044.137.025.075.072.026.12.014.152v.711h.209V19.2Z" transform="translate(-48.456 -18.724)" fill="#fff"/>
      </g>
    </g>
    <g id="Group_551" data-name="Group 551" transform="translate(7.955 2.782)">
      <g id="Group_550" data-name="Group 550">
        <path id="Path_6011" data-name="Path 6011" d="M15.171,21.775a4.856,4.856,0,0,0-2.287-.408,10.105,10.105,0,0,0-1.548.12c-.383.059-.42.07-.656.121a.75.75,0,0,0-.563.592l-.157.644c-.089.411.148.4.247.361a6.648,6.648,0,0,1,.765-.226,5.485,5.485,0,0,1,1.2-.16,3.159,3.159,0,0,1,1.164.164.588.588,0,0,1,.386.581l-.022.181-.184.114c-.726.046-1.25.113-1.887.205A5.853,5.853,0,0,0,10,24.51a2.522,2.522,0,0,0-1.1.868,2.367,2.367,0,0,0-.366,1.338,1.581,1.581,0,0,0,.521,1.215,1.956,1.956,0,0,0,1.348.46,3.678,3.678,0,0,0,.8-.075l.62-.213.525-.291.483-.319.007.009-.048.2,0,.008v0a.38.38,0,0,0,.342.479l0,.006h1.188l.017-.007a.662.662,0,0,0,.551-.479l.933-4.038.048-.329.022-.308A1.35,1.35,0,0,0,15.171,21.775Zm-2.063,4.54-.2.263-.5.26a1.792,1.792,0,0,1-.669.144,1.535,1.535,0,0,1-.729-.139l-.247-.48a.959.959,0,0,1,.187-.624l.542-.369a4.691,4.691,0,0,1,.843-.19c.293-.036.87-.1.946-.1l.089.156C13.35,25.32,13.186,26.006,13.108,26.315Z" transform="translate(-8.537 -21.367)" fill="#fff"/>
      </g>
    </g>
    <g id="Group_553" data-name="Group 553" transform="translate(31.192 2.787)">
      <g id="Group_552" data-name="Group 552">
        <path id="Path_6012" data-name="Path 6012" d="M40.109,21.781a4.865,4.865,0,0,0-2.286-.409,9.741,9.741,0,0,0-1.547.123c-.384.056-.422.068-.659.118a.748.748,0,0,0-.561.593l-.157.643c-.088.411.143.392.252.361a7.58,7.58,0,0,1,.758-.226,5.722,5.722,0,0,1,1.2-.16,3.142,3.142,0,0,1,1.161.165.587.587,0,0,1,.386.581l-.02.18-.183.116c-.733.044-1.259.111-1.889.2a5.855,5.855,0,0,0-1.623.446,2.52,2.52,0,0,0-1.1.87,2.337,2.337,0,0,0-.367,1.333A1.563,1.563,0,0,0,34,27.934a1.958,1.958,0,0,0,1.346.463,3.565,3.565,0,0,0,.8-.075l.618-.211.529-.291.479-.322.008.01-.044.207,0,0,0,0a.374.374,0,0,0,.34.479l0,0h1.187l.02-.007a.655.655,0,0,0,.544-.483l.936-4.032.049-.331.027-.309A1.348,1.348,0,0,0,40.109,21.781Zm-2.058,4.54-.208.266-.5.258a1.812,1.812,0,0,1-.666.144,1.49,1.49,0,0,1-.728-.14l-.25-.478a1,1,0,0,1,.183-.626,1.311,1.311,0,0,1,.548-.368,4.753,4.753,0,0,1,.842-.189c.291-.036.867-.1.941-.105l.09.156C38.292,25.327,38.127,26.01,38.05,26.321Z" transform="translate(-33.475 -21.372)" fill="#fff"/>
      </g>
    </g>
    <g id="Group_555" data-name="Group 555" transform="translate(23.233 0.818)">
      <g id="Group_554" data-name="Group 554">
        <path id="Path_6013" data-name="Path 6013" d="M33.353,20.541a1.98,1.98,0,0,0-.7-.757,3.14,3.14,0,0,0-1.112-.408,8.8,8.8,0,0,0-1.5-.117l-2.675,0a.665.665,0,0,0-.61.486l-1.8,7.833a.379.379,0,0,0,.386.485l1.281,0a.663.663,0,0,0,.615-.485l.433-1.9a.663.663,0,0,1,.615-.485h.366a6.09,6.09,0,0,0,3.655-.961,3.028,3.028,0,0,0,1.3-2.541A2.5,2.5,0,0,0,33.353,20.541ZM30.594,23.1a2.724,2.724,0,0,1-1.614.419h-.319a.383.383,0,0,1-.391-.487l.388-1.66a.651.651,0,0,1,.611-.485l.415,0a2.071,2.071,0,0,1,1.113.248.853.853,0,0,1,.372.762A1.4,1.4,0,0,1,30.594,23.1Z" transform="translate(-24.934 -19.259)" fill="#fff"/>
      </g>
    </g>
    <g id="Group_557" data-name="Group 557" transform="translate(38.759 0.888)">
      <g id="Group_556" data-name="Group 556">
        <path id="Path_6014" data-name="Path 6014" d="M45.459,19.815a.374.374,0,0,0-.384-.481H43.929a.649.649,0,0,0-.55.389l-.063.1-.058.253-1.6,7.281-.052.224,0,.006a.363.363,0,0,0,.321.455l.02.027h1.19a.65.65,0,0,0,.552-.4l.062-.093,1.713-7.763Z" transform="translate(-41.595 -19.334)" fill="#fff"/>
      </g>
    </g>
    <g id="Group_559" data-name="Group 559" transform="translate(15.741 2.88)">
      <g id="Group_558" data-name="Group 558">
        <path id="Path_6015" data-name="Path 6015" d="M24.434,21.472c-.3,0-1.534,0-1.534,0a1.109,1.109,0,0,0-.805.488s-1.832,3.144-2.01,3.46l-.212,0-.57-3.436a.7.7,0,0,0-.7-.5l-1.146,0a.378.378,0,0,0-.383.488s.87,4.953,1.045,6.118c.081.643-.01.758-.01.758L16.978,30.82c-.168.268-.077.487.2.487l1.325,0a1.071,1.071,0,0,0,.8-.486L24.4,22.2S24.89,21.462,24.434,21.472Z" transform="translate(-16.893 -21.472)" fill="#fff"/>
      </g>
    </g>
  </g>
</svg>
