<svg xmlns="http://www.w3.org/2000/svg" width="21.021" height="21.049" viewBox="0 0 21.021 21.049">
  <g id="noun_Search_1219691_1_" data-name="noun_Search_1219691 (1)" transform="translate(-16.845 -16.786)">
    <path id="Path_68010" data-name="Path 68010" d="M32.206,19.438l-.022-.022a9.008,9.008,0,0,0-12.724,0h0A9,9,0,0,0,31.6,32.672l5.143,5.152a1.22,1.22,0,0,0,.874-.2,1.448,1.448,0,0,0,.243-.918L32.71,31.564a9,9,0,0,0-.5-12.126ZM25.821,33.211a7.434,7.434,0,0,1-5.258-12.689h0a7.437,7.437,0,0,1,10.482,0l.022.022a7.44,7.44,0,0,1,0,10.5h0a7.384,7.384,0,0,1-5.246,2.166Z" fill="rgba(25,23,23,0.25)"/>
  </g>
</svg>
