<svg id="noun_cool_852038" xmlns="http://www.w3.org/2000/svg" width="65.782" height="65.781" viewBox="0 0 65.782 65.781">
  <path id="Path_27" data-name="Path 27" d="M96.894,64.01a32.891,32.891,0,1,0,32.888,32.9A32.895,32.895,0,0,0,96.894,64.01Zm16.193,41.627c-.176.338-4.446,8.279-17,8.279a.978.978,0,0,1,0-1.956c11.315,0,15.112-6.934,15.271-7.227a.977.977,0,0,1,1.733.9Zm5.5-16.728-.176.141-.226.019s-.737.1-.752.435a8.484,8.484,0,0,1-2.062,5.734,7.643,7.643,0,0,1-5.794,2.18h-.047a12.85,12.85,0,0,1-10.845-9.559c-.026-.129-.35-2.305-1.774-2.305-1.477,0-1.785,2.17-1.788,2.194a12.909,12.909,0,0,1-10.869,9.671h-.009a7.667,7.667,0,0,1-5.832-2.179,8.515,8.515,0,0,1-2.059-5.809c-.015-.262-.749-.36-.755-.36l-.223-.019-.179-.142a2.091,2.091,0,0,1-.811-1.5,4.419,4.419,0,0,1,1.2-2.856l.12-.134.17-.065c.332-.123,8.232-3.045,20.519-3.045a77.951,77.951,0,0,1,21.447,3.028l.206.059.144.159a4.443,4.443,0,0,1,1.2,2.854A2.109,2.109,0,0,1,118.59,88.909Z" transform="translate(-64 -64.01)" fill="#b0060f"/>
</svg>
