<svg id="TSP_T-shirt_QuickBuy" xmlns="http://www.w3.org/2000/svg" width="55.772" height="45" viewBox="0 0 55.772 45">
  <g id="Group_679" data-name="Group 679">
    <path id="Path_6032" data-name="Path 6032" d="M13.07,43.251H42.7V17.139a.876.876,0,0,1,.874-.874.932.932,0,0,1,.245.037l8.054,1.682L53.9,8.655,37.389,2.119A9.467,9.467,0,0,1,34.655,7.6a9.579,9.579,0,0,1-13.538,0,9.511,9.511,0,0,1-2.734-5.476L1.881,8.647,3.9,17.984l8.129-1.7a.863.863,0,0,1,1.023.674.731.731,0,0,1,.022.178V43.251ZM51.875,17.984h0L53.9,8.655h0l-2.023,9.329ZM1.881,8.647v.007L3.9,17.984h0ZM19.361.022A48.236,48.236,0,0,0,27.89.763,50.429,50.429,0,0,0,36.418.022a.846.846,0,0,1,.5.037l18.3,7.247a.868.868,0,0,1,.526.993L53.394,19.2a.875.875,0,0,1-1.03.667l-7.921-1.66v25.92a.87.87,0,0,1-.867.874H12.2a.876.876,0,0,1-.874-.874V18.206l-7.914,1.66A.882.882,0,0,1,2.378,19.2L.029,8.329A.868.868,0,0,1,.547,7.306L18.813.074A.954.954,0,0,1,19.168,0a.808.808,0,0,1,.193.022ZM35.662,1.9a52.729,52.729,0,0,1-7.773.6,50.632,50.632,0,0,1-7.773-.593,7.721,7.721,0,0,0,2.23,4.453A7.842,7.842,0,0,0,27.89,8.647a7.869,7.869,0,0,0,5.543-2.282A7.786,7.786,0,0,0,35.662,1.9ZM42.7,43.251h0Z" transform="translate(0 0)" fill="#fff"/>
  </g>
</svg>
