<svg xmlns="http://www.w3.org/2000/svg" width="27.45" height="45.075" viewBox="0 0 27.45 45.075">
  <g id="TSP_TankTop_QuicBuy" transform="translate(230.344 1085.249)">
    <path id="Path_6104" data-name="Path 6104" d="M47.289,18.556l.009-.2-.16-.124c-3.786-2.944-4.276-6.189-4.279-6.189V4.751H40.011v4.64c0,4.022-3.544,4.334-4.63,4.334s-4.629-.313-4.629-4.334V4.751H27.9l0,7.238c0,.033-.486,3.287-4.282,6.24l-.16.124.009.2c.007.157.708,15.825-1.609,23.645a3.962,3.962,0,0,0,.519,3.595c2.281,3.19,9.461,3.851,12.124,3.985a1.611,1.611,0,0,0,.439.039c.117.008.263,0,.435-.005a3.109,3.109,0,0,0,.869-.032c2.617-.132,9.84-.786,12.128-3.987A3.964,3.964,0,0,0,48.9,42.2C46.581,34.382,47.281,18.713,47.289,18.556ZM35.381,14.508a5.375,5.375,0,0,0,4.595-2.132c-.353,3.421-3.569,3.7-4.594,3.7s-4.241-.283-4.594-3.7A5.373,5.373,0,0,0,35.381,14.508ZM47.743,45.34c-2.173,3.04-9.572,3.58-11.811,3.674-.125,0-.306-.006-.551-.006s-.44,0-.538.006c-2.224-.092-9.647-.629-11.824-3.675a3.176,3.176,0,0,1-.405-2.918c2.238-7.552,1.731-21.758,1.649-23.7,3.921-3.128,4.4-6.487,4.421-6.68V5.533H29.97v6.213c0,3.772,2.8,5.116,5.411,5.116s5.412-1.344,5.412-5.116V5.533h1.285l0,6.558c.019.143.5,3.5,4.418,6.63-.082,1.944-.589,16.15,1.649,23.7A3.177,3.177,0,0,1,47.743,45.34Z" transform="translate(-252 -1090)" fill="#fff"/>
  </g>
</svg>
