<svg id="noun_User_147331_1_" data-name="noun_User_147331 (1)" xmlns="http://www.w3.org/2000/svg" width="18.313" height="20.93" viewBox="0 0 18.313 20.93">
  <g id="Group_2101" data-name="Group 2101">
    <g id="Group_2099" data-name="Group 2099" transform="translate(4.115 0)">
      <path id="Path_68007" data-name="Path 68007" d="M33.842,16.384a5.042,5.042,0,1,1,5.042-5.042A5.045,5.045,0,0,1,33.842,16.384Zm0-8.9A3.853,3.853,0,1,0,37.7,11.342,3.867,3.867,0,0,0,33.842,7.489Z" transform="translate(-28.8 -6.3)"/>
    </g>
    <g id="Group_2100" data-name="Group 2100" transform="translate(0 11.178)">
      <path id="Path_68008" data-name="Path 68008" d="M29.219,63.051H12.095a.589.589,0,0,1-.595-.595,9.157,9.157,0,0,1,18.313-.071v.071A.6.6,0,0,1,29.219,63.051ZM12.713,61.862H28.6a7.966,7.966,0,0,0-15.888,0Z" transform="translate(-11.5 -53.3)"/>
    </g>
  </g>
</svg>
