<svg id="Group_561" data-name="Group 561" xmlns="http://www.w3.org/2000/svg" width="63.145" height="36.189" viewBox="0 0 63.145 36.189">
  <rect id="Rectangle_395" data-name="Rectangle 395" width="63.145" height="36.189" rx="4" transform="translate(0)" fill="#fff" opacity="0.15"/>
  <g id="visa-pay-logo" transform="translate(8.115 10.82)">
    <g id="Group_495" data-name="Group 495" transform="translate(16.421 0.241)">
      <g id="Group_494" data-name="Group 494">
        <path id="Path_5984" data-name="Path 5984" d="M19.109,16.8,16.722,30.808H20.54L22.929,16.8Z" transform="translate(-16.722 -16.799)" fill="#fff"/>
      </g>
    </g>
    <g id="Group_497" data-name="Group 497" transform="translate(3.792 0.253)">
      <g id="Group_496" data-name="Group 496">
        <path id="Path_5985" data-name="Path 5985" d="M13.289,16.815,9.55,26.369l-.4-1.443a14.989,14.989,0,0,0-5.289-5.807L7.281,30.8l4.04-.007,6.013-13.982Z" transform="translate(-3.862 -16.812)" fill="#fff"/>
      </g>
    </g>
    <g id="Group_499" data-name="Group 499" transform="translate(0 0.121)">
      <g id="Group_498" data-name="Group 498">
        <path id="Path_5986" data-name="Path 5986" d="M7.632,17.815a1.536,1.536,0,0,0-1.663-1.138H.049L0,16.956C4.606,18.073,7.654,20.766,8.919,24Z" transform="translate(0 -16.677)" fill="#fff"/>
      </g>
    </g>
    <g id="Group_501" data-name="Group 501" transform="translate(22.628 0)">
      <g id="Group_500" data-name="Group 500">
        <path id="Path_5987" data-name="Path 5987" d="M30.781,19.48a7.049,7.049,0,0,1,2.858.536l.345.162.517-3.036a9.855,9.855,0,0,0-3.42-.588c-3.773,0-6.432,1.9-6.453,4.623-.025,2.012,1.894,3.135,3.344,3.806,1.488.687,1.987,1.124,1.98,1.738-.012.938-1.186,1.368-2.283,1.368a8.014,8.014,0,0,1-3.6-.734l-.492-.224-.537,3.135a12.092,12.092,0,0,0,4.254.746c4.013,0,6.621-1.878,6.649-4.787.017-1.592-1-2.806-3.208-3.8-1.335-.65-2.152-1.082-2.145-1.738C28.593,20.1,29.286,19.48,30.781,19.48Z" transform="translate(-23.043 -16.554)" fill="#fff"/>
      </g>
    </g>
    <g id="Group_503" data-name="Group 503" transform="translate(33.263 0.256)">
      <g id="Group_502" data-name="Group 502">
        <path id="Path_5988" data-name="Path 5988" d="M44.493,16.815h-2.95a1.9,1.9,0,0,0-2,1.163L33.874,30.816h4.009s.654-1.726.8-2.1l4.889.006c.114.489.465,2.1.465,2.1h3.542Zm-4.709,9.029c.314-.8,1.521-3.915,1.521-3.915-.021.038.311-.81.509-1.337l.257,1.208.885,4.045Z" transform="translate(-33.874 -16.815)" fill="#fff"/>
      </g>
    </g>
  </g>
</svg>
